# xmcd CD database file
#
# Track frame offsets:
#	150
#	18633
#	31997
#	52819
#	72017
#	88400
#	108020
#	119206
#	137841
#	160017
#	184423
#
# Disc length: 2712 seconds
#
# Revision: 0
# Processed by: cddbd v1.5.1PL0 Copyright (c) Steve Scherf et al.
# Submitted via: CDex 1.51
#
DISCID=960a960b
DTITLE=Allan Browne's Australian Jazz Band - He's Not Much... But He's All He Thinks About
DYEAR=2005
DGENRE=Jazz
TTITLE0=Kookaburra Rag
TTITLE1=He's Not Much, But He's All He Thinks About
TTITLE2=Magpie Stomp
TTITLE3=I Cover The Waterfront
TTITLE4=Sweetie Dear
TTITLE5=Turtle Twist
TTITLE6=Bronchoscopy
TTITLE7=Don't Monkey With It
TTITLE8=In My Solitude
TTITLE9=Cardiac Blues
TTITLE10=New Orleans Stomp
EXTD=YEAR: 2005
EXTT0=
EXTT1=
EXTT2=
EXTT3=
EXTT4=
EXTT5=
EXTT6=
EXTT7=
EXTT8=
EXTT9=
EXTT10=
PLAYORDER=
